<?xml version="1.0" encoding="UTF-8" standalone="no"?>
<svg
   xmlns:dc="http://purl.org/dc/elements/1.1/"
   xmlns:cc="http://creativecommons.org/ns#"
   xmlns:rdf="http://www.w3.org/1999/02/22-rdf-syntax-ns#"
   xmlns:svg="http://www.w3.org/2000/svg"
   xmlns="http://www.w3.org/2000/svg"
   xmlns:sodipodi="http://sodipodi.sourceforge.net/DTD/sodipodi-0.dtd"
   xmlns:inkscape="http://www.inkscape.org/namespaces/inkscape"
   version="1.1"
   id="svg4625"
   viewBox="0 0 40.221212 53.999968"
   height="53.999969"
   width="40.22121"
   inkscape:version="0.91pre3 r13670"
   sodipodi:docname="clem3_depit.svg">
  <sodipodi:namedview
     pagecolor="#ffffff"
     bordercolor="#666666"
     borderopacity="1"
     objecttolerance="10"
     gridtolerance="10"
     guidetolerance="10"
     inkscape:pageopacity="0"
     inkscape:pageshadow="2"
     inkscape:window-width="1600"
     inkscape:window-height="837"
     id="namedview14"
     showgrid="false"
     inkscape:zoom="11.864879"
     inkscape:cx="20.110605"
     inkscape:cy="26.999985"
     inkscape:window-x="-8"
     inkscape:window-y="-8"
     inkscape:window-maximized="1"
     inkscape:current-layer="svg4625" />
  <defs
     id="defs4627">
    <pattern
       id="EMFhbasepattern"
       patternUnits="userSpaceOnUse"
       width="6"
       height="6"
       x="0"
       y="0" />
  </defs>
  <metadata
     id="metadata4630">
    <rdf:RDF>
      <cc:Work
         rdf:about="">
        <dc:format>image/svg+xml</dc:format>
        <dc:type
           rdf:resource="http://purl.org/dc/dcmitype/StillImage" />
        <dc:title />
      </cc:Work>
    </rdf:RDF>
  </metadata>
  <path
     id="path4173"
     d="m 39.413544,10.225298 c -7.188077,-4.3613707 -16.556946,-2.0192803 -20.91821,5.249671 -0.08078,0.08013 -0.161519,0.24039 -0.242298,0.404085 0.323077,0.24039 0.56536,0.403703 0.888426,0.565108 7.188077,4.361371 16.556946,2.019281 20.837443,-5.24967 0.08078,-0.08013 0.161519,-0.244207 0.242298,-0.403704 -0.242298,-0.24039 -0.56536,-0.404085 -0.807659,-0.56549 z"
     style="fill:#479f00;fill-opacity:1;fill-rule:evenodd;stroke:none"
     inkscape:connector-curvature="0" />
  <path
     id="path4175"
     d="M 0.56535792,14.263477 C 5.4920508,10.144405 12.841704,10.709895 17.041544,15.636756 c 0.08078,0.16026 0.16152,0.24039 0.242299,0.324336 -0.16152,0.24039 -0.403834,0.403703 -0.565365,0.56549 C 11.791744,20.645654 4.4421052,20.080164 0.24229597,15.153685 0.16151712,15.073555 0.08077644,14.913295 -2.4067752e-6,14.829349 0.16151712,14.669088 0.40382313,14.425645 0.5653541,14.263859 Z"
     style="fill:#479f00;fill-opacity:1;fill-rule:evenodd;stroke:none"
     inkscape:connector-curvature="0" />
  <path
     id="path4177"
     d="m 39.171246,34.858839 c 0,10.580235 -8.561104,19.14119 -19.06059,19.14119 -10.5803308,0 -19.14147255,-8.560955 -19.14147255,-19.14119 0,-10.580235 8.56114175,-19.141572 19.14147255,-19.141572 10.499486,0 19.06059,8.561337 19.06059,19.141572 z"
     style="fill:#f8ad32;fill-opacity:1;fill-rule:evenodd;stroke:none"
     inkscape:connector-curvature="0" />
  <path
     id="path4179"
     d="m 16.637711,32.112663 c 0,0.8883 -0.726895,1.615196 -1.696089,1.615196 -0.888426,0 -1.615321,-0.726896 -1.615321,-1.615196 0,-0.969193 0.726895,-1.696088 1.615321,-1.696088 0.969194,0 1.696089,0.726895 1.696089,1.696088 z"
     style="fill:#9a2400;fill-opacity:1;fill-rule:evenodd;stroke:#9a2400;stroke-width:1.04995191px;stroke-linecap:round;stroke-linejoin:round;stroke-miterlimit:4;stroke-dasharray:none;stroke-opacity:1"
     inkscape:connector-curvature="0" />
  <path
     id="path4181"
     d="m 26.894903,32.112663 c 0,0.8883 -0.807662,1.615196 -1.696088,1.615196 -0.888426,0 -1.615322,-0.726896 -1.615322,-1.615196 0,-0.969193 0.726896,-1.696088 1.615322,-1.696088 0.888426,0 1.696088,0.726895 1.696088,1.696088 z"
     style="fill:#9a2400;fill-opacity:1;fill-rule:evenodd;stroke:#9a2400;stroke-width:1.04995191px;stroke-linecap:round;stroke-linejoin:round;stroke-miterlimit:4;stroke-dasharray:none;stroke-opacity:1"
     inkscape:connector-curvature="0" />
  <path
     id="path4183"
     d="m 29.075589,45.761884 c -2.261453,-2.261197 -5.492096,-3.634094 -8.964933,-3.634094 -3.553709,0 -6.703587,1.372897 -9.045808,3.634094"
     style="fill:none;stroke:#9a2400;stroke-width:2.18066931px;stroke-linecap:round;stroke-linejoin:round;stroke-miterlimit:4;stroke-dasharray:none;stroke-opacity:1"
     inkscape:connector-curvature="0" />
</svg>
